<svg id="Capa_2" data-name="Capa 2" xmlns="http://www.w3.org/2000/svg" viewBox="0 0 595.965 759.54"><title>Midnight</title><path d="M649.921,241.085a7.547,7.547,0,0,0-3.447-1.665,22.259,22.259,0,0,0,1.272,3.4c.478,1.017.994,1.964,1.54,2.892s1.155,1.814,1.812,2.718a19.142,19.142,0,0,0,2.42,2.725,9.189,9.189,0,0,0-1.186-7.273A10.654,10.654,0,0,0,649.921,241.085Z" transform="translate(-310.947 -192.452)"/><path d="M501.5,505.5a14.288,14.288,0,0,0-.754,3.3,20.777,20.777,0,0,0-.11,3.013,23.184,23.184,0,0,0,.286,2.954,19.922,19.922,0,0,0,.774,3.25,6.456,6.456,0,0,0,2-2.955,9.346,9.346,0,0,0,.486-3.372,9.988,9.988,0,0,0-.685-3.292A7.355,7.355,0,0,0,501.5,505.5Z" transform="translate(-310.947 -192.452)"/><path d="M736.261,380.068a11.275,11.275,0,0,0-.214-1.588,18.269,18.269,0,0,0-.5-1.87c-.23-.593-.487-1.174-.738-1.752-.3-.552-.633-1.086-.955-1.621a12.976,12.976,0,0,0-1.143-1.461l-.6-.7-.678-.605-1.366-1.179-1.491-.945a24.572,24.572,0,0,0-7.258-2.829c.571-2.775,1.09-5.558,1.5-8.344a190.561,190.561,0,0,0,.514-47.768,213.9,213.9,0,0,0-3.922-23.581c-.894-3.892-1.879-7.773-3.078-11.627-.589-1.928-1.223-3.86-1.945-5.793-.367-.971-.755-1.937-1.185-2.93a25.777,25.777,0,0,0-1.606-3.184,12.915,12.915,0,0,0-6.542-5.074,26.358,26.358,0,0,0-6.571-1.507,59.157,59.157,0,0,0-12.321.081c-1.051.116-2.088.278-3.131.419a109.116,109.116,0,0,0-10.047-16.983,119.341,119.341,0,0,0-57.01-42.631,80.8,80.8,0,0,0-8.922-2.6,67.649,67.649,0,0,0-9.31-1.352,61.8,61.8,0,0,0-9.458-.019,36.276,36.276,0,0,0-9.826,1.99,21.356,21.356,0,0,0-5.11,2.746,12.761,12.761,0,0,0-4.223,5.6,11.884,11.884,0,0,0-.35,6.965,17.123,17.123,0,0,0,.923,2.866c.385.851.805,1.658,1.234,2.449a38,38,0,0,0,6.1,7.648c1.1,1.124,2.246,2.126,3.387,3.145l3.074,2.841a85.578,85.578,0,0,1,10.929,12.428,103.117,103.117,0,0,1,8.589,14.45,123.111,123.111,0,0,1,7.872,20.747c-.747.452-1.49.92-2.228,1.389-1.105.829-2.145,1.566-3.283,2.554a19.239,19.239,0,0,0-4.981,7.791,34.7,34.7,0,0,0-1.674,8.123,80.722,80.722,0,0,0,.36,15.254c.529,4.925,1.255,9.742,2.054,14.519,1.4,8.5,2.92,16.838,3.882,25.472a17.649,17.649,0,0,0-2.828.217c-.409.09-.815.179-1.222.3-.415.161-.827.342-1.232.533a14.649,14.649,0,0,0-1.784,1.138,26.03,26.03,0,0,0-2.713,2.315,90.833,90.833,0,0,0-8.373,9.627c-5.07,6.569-9.668,13.342-14.19,20.134l-6.668,10.206-3.3,5.049-1.66,2.441c-.294.43-.49.655-.964,1.432l-.591,1-.435,1.013a18.952,18.952,0,0,0-1.2,7.636,39.239,39.239,0,0,0,.825,6.723,81.347,81.347,0,0,0,3.662,12.181c.136.361.287.712.425,1.072-1.3,1.032-2.64,2-4.008,2.922-1.121.826-2.338,1.545-3.488,2.314L551.7,442a164.781,164.781,0,0,1-14.763,7.551c-5,2.337-10.149,4.354-15.287,6.393l-7.8,2.871c-2.632.845-5.236,1.778-7.854,2.68a34.557,34.557,0,0,0-5.347,1.547,21.081,21.081,0,0,0-5.741,3.219,11.321,11.321,0,0,0-2.6,2.969,8.627,8.627,0,0,0-1.237,4.3c-.072,3.02,1.747,5.462,2.379,6.5.064.1.119.219.181.325-2.163.165-4.331.281-6.507.331-8.945.3-17.918.051-26.883-.421-9.02-.454-18.227-.937-27.645-.61-2.371.077-4.761.236-7.244.543a39.692,39.692,0,0,0-7.875,1.638,18.12,18.12,0,0,0-4.557,2.229,12.775,12.775,0,0,0-4.294,5.023,13.18,13.18,0,0,0-1.118,6.187,22.02,22.02,0,0,0,.781,4.731,80.2,80.2,0,0,0,5.917,13.637,57.15,57.15,0,0,0,4.125,6.483c.759,1,1.474,2.055,2.274,3l2.463,2.77A94.036,94.036,0,0,0,445.7,543.589a111.68,111.68,0,0,0,26,10.871l3.393.9,3.448.693a61.761,61.761,0,0,0,6.93,1.034c2.3.331,4.658.313,6.961.425a31.492,31.492,0,0,0,3.4-.112c-.145.537-.28,1.088-.449,1.6l-.217.709c-.077.253-.191.727-.274,1.085a6.387,6.387,0,0,0-.178,1.221,6.089,6.089,0,0,0-.014,1.3,8.98,8.98,0,0,0,1.871,4.909,13.275,13.275,0,0,0,3.377,3,26.546,26.546,0,0,0,6.946,3.015,69.774,69.774,0,0,0,13.528,2.343,129.4,129.4,0,0,0,13.343.457,136.07,136.07,0,0,0,26.509-3.433c4.338-.953,8.6-2.21,12.85-3.482l6.285-2.2c2.1-.717,4.127-1.637,6.178-2.481l3.064-1.3c1.016-.445,2-.966,3-1.445l5.952-2.971,5.746-3.355,2.85-1.7,2.739-1.886c3.413-2.319,6.707-4.807,9.884-7.428a31.077,31.077,0,0,0,2.233,2.69,19.9,19.9,0,0,0,1.983,1.857,13.516,13.516,0,0,0,2.529,1.579,22.577,22.577,0,0,0,10.346,2.537,28.1,28.1,0,0,0,10.232-2.049c6.314-2.508,11.441-6.454,16.144-10.553,2.342-2.125,4.517-4.148,6.745-6.535,2.128-2.318,4.092-4.64,6.024-6.989,3.879-4.675,7.422-9.548,10.951-14.427,14.028-19.552,26.6-40.178,36.572-62.249q3.743-8.266,6.862-16.846a151.151,151.151,0,0,0,5.3-17.514,110.265,110.265,0,0,0,2.886-18.258A63.228,63.228,0,0,0,736.261,380.068ZM730.332,397.9a102.56,102.56,0,0,1-3.7,16.774A220.439,220.439,0,0,1,713.6,447a478.95,478.95,0,0,1-36.04,60.468c-3.349,4.828-6.871,9.534-10.374,14.189-1.765,2.312-3.566,4.6-5.387,6.729-1.756,2.032-3.861,4.149-5.858,6.092a53.4,53.4,0,0,1-13.143,9.552c-4.666,2.182-9.488,2.662-13.955.636a6.229,6.229,0,0,1-1.3-.675,12.725,12.725,0,0,1-1.336-1.118,26.084,26.084,0,0,1-2.072-2.134,113.95,113.95,0,0,0,20.975-25.655,190.98,190.98,0,0,1-24.858,20.779c-.667-.912-1.332-1.829-1.979-2.765-3.3-4.8-6.372-9.855-9.432-14.92q-1.9-3.217-3.77-6.467l3.511-2.106,2.664-1.619,2.513-1.836c1.663-1.236,3.362-2.418,4.979-3.7l4.666-4.048a123.555,123.555,0,0,0,16.383-18.115,156.5,156.5,0,0,0,12.863-20.455,148.22,148.22,0,0,0,9.481-22.032,147.2,147.2,0,0,1-11.4,20.91,153.122,153.122,0,0,1-14.381,18.759,117.958,117.958,0,0,1-17.189,15.793l-4.7,3.373c-1.614,1.046-3.292,1.988-4.927,2.985l-2.46,1.475-2.578,1.248-3.738,1.8q-4.774-8.472-9.45-17.039,4.5,12.779,9.917,25.219a47.14,47.14,0,0,1-7,7,52.51,52.51,0,0,1-4.324,3.172c-1.547.9-3.06,1.889-4.7,2.649a54.17,54.17,0,0,1-10.117,3.922,51.484,51.484,0,0,1-10.774,1.858,51.889,51.889,0,0,0,10.977-.993,55.56,55.56,0,0,0,10.648-3.168c1.751-.65,3.4-1.538,5.085-2.351a54.791,54.791,0,0,0,4.793-2.951,46.1,46.1,0,0,0,6.938-5.746c.684,1.529,1.354,3.063,2.059,4.585,2.5,5.45,5.192,10.818,8.224,16.09.594,1.03,1.213,2.053,1.839,3.075q-5.053,3.26-10.3,6.156l-2.723,1.547-2.827,1.363-5.609,2.773c-3.886,1.542-7.608,3.417-11.573,4.733a171.23,171.23,0,0,1-23.908,7.157c-2.017.519-4.063.9-6.105,1.292-2.036.436-4.093.721-6.143,1.057-4.091.671-8.241,1.131-12.281,1.4-8.252.429-16.817.57-24.464-.82a21.491,21.491,0,0,1-5.073-1.554,6.527,6.527,0,0,1-1.6-1.047,2.059,2.059,0,0,1-.614-.932c-.341-.3.484-3.356.618-5.443.15-1.4.253-2.791.338-4.173l5.139.031c2.682-.1,5.351-.107,8.02-.3,5.337-.317,10.65-.866,15.908-1.7a134.619,134.619,0,0,0,15.549-3.427,79.084,79.084,0,0,0,14.738-5.693,78.1,78.1,0,0,1-15.205,3.521,131.416,131.416,0,0,1-15.476,1.174c-5.164.082-10.318-.116-15.442-.537-2.562-.176-5.117-.541-7.663-.8l-5.371-.8a180.6,180.6,0,0,0-1.1-19.975c-1.372,8.561-2.49,17.115-4.138,25.456-.42,2.076-.831,4.145-1.35,6.142-.037.138-.078.266-.114.4a109.188,109.188,0,0,1-22.309-7.767,142.217,142.217,0,0,1-22.8-13.352A102.361,102.361,0,0,1,431.924,518.1l-1.969-2.42c-.643-.809-1.166-1.671-1.758-2.5a45.015,45.015,0,0,1-3.042-5.113,73.733,73.733,0,0,1-4.884-11.388,10.181,10.181,0,0,1-.378-1.979c-.01-.222-.007-.371-.006-.454.026-.024.053-.049.1-.09a7.576,7.576,0,0,1,1.556-.753,28.113,28.113,0,0,1,5.433-1.275c2.023-.321,4.173-.523,6.341-.729,8.755-.74,17.761-.911,26.934-1.391a182.927,182.927,0,0,0,27.6-3.289q4.027-.813,8-1.963c.639,1.472,1.227,2.994,1.775,4.545,1.1,3.325,2.091,6.765,2.889,10.325a37.173,37.173,0,0,0,.622-5.463,41.687,41.687,0,0,0-.046-5.542,43.149,43.149,0,0,0-.658-5.323c.3-.105.6-.2.895-.3a54.663,54.663,0,0,0,6.438-2.783,20.556,20.556,0,0,0,5.662-4.063,22.385,22.385,0,0,1-6.328,2.316,55.475,55.475,0,0,1-6.6,1.2c-.306.037-.611.066-.917.1-.225-.77-.462-1.539-.747-2.3l-.553-1.378a4.886,4.886,0,0,1-.194-.528,3.285,3.285,0,0,1-.132-.419,2.334,2.334,0,0,1-.037-1.246c.138-.489.53-.935,1.549-1.6a22.514,22.514,0,0,1,8.291-2.492l.286-.035.346-.1c2.772-.827,5.558-1.622,8.316-2.506,2.737-.963,5.467-1.952,8.169-3.018a116.561,116.561,0,0,0,15.664-7.745,84.618,84.618,0,0,0,14.161-10.34c1.074-1,2.122-2.031,3.143-3.076.976-1.109,1.992-2.148,2.911-3.3s1.813-2.317,2.62-3.544c5.75,14.562,13.148,27.994,20.488,41.574-2.1-7.62-4.632-15.11-7.178-22.546a125.745,125.745,0,0,0,11.676-9.444,122.864,122.864,0,0,0,10.571-10.854,126.336,126.336,0,0,0,9.2-11.936,103.129,103.129,0,0,0,7.622-12.913,102.389,102.389,0,0,1-8.689,12.114A124.456,124.456,0,0,1,597,433.042a119.271,119.271,0,0,1-11.2,9.616,114.784,114.784,0,0,1-10.874,7.364c-2.126-6.221-4.2-12.416-5.985-18.622a100.5,100.5,0,0,1-2.538-11.393,37.058,37.058,0,0,1-.377-5.4,10.856,10.856,0,0,1,.793-4.3c.183-.545,1.907-2.7,3-4.306l3.506-5.074,6.764-10.156c4.458-6.764,8.9-13.516,13.522-20.011a101.768,101.768,0,0,1,7.173-9.146,10.809,10.809,0,0,1,2.954-2.528,11.678,11.678,0,0,1,2.292-.3c.889-.057,1.847-.057,2.806-.041,3.863.053,7.873.5,11.874.853,4.01.38,8.03.861,12.055,1.361,8.068.919,16.131,2.031,24.273,2.892-4.5-1.62-9.051-3.051-13.63-4.394a63.666,63.666,0,0,0,1.605-14.8,121.834,121.834,0,0,0-1.034-16.116,121.064,121.064,0,0,1-.74,16.008,61.051,61.051,0,0,1-3.12,13.957q-3.266-.924-6.546-1.806c-.754-.188-1.509-.37-2.262-.556a239.627,239.627,0,0,0,1.551-29.324q-.075-15.571-1.258-31.05c-.082,10.342-.571,20.67-1.4,30.942a237.24,237.24,0,0,1-3.913,28.223,140.545,140.545,0,0,0-17.03-3.081c-.989-.1-1.988-.182-3.037-.217,1.987-8.577,2.076-17.529,1.875-26.166-.123-4.881-.418-9.716-.6-14.468a107.988,107.988,0,0,1,.079-13.821c.354-4.378,1.438-8.395,3.614-10.65.542-.547,1.136-1.078,1.754-1.6.22-.187.436-.375.665-.56a65.6,65.6,0,0,1,8.4-5.55c2.1-1.181,4.241-2.308,6.423-3.4,1.462-.733,2.957-1.437,4.45-2.144,4.947-2.34,10.028-4.575,15.164-6.849a86.544,86.544,0,0,0-14.692,1.852c-.189.039-.375.089-.563.129a43.251,43.251,0,0,0-.837-6.152c-1.053-5.7-4.158-10.75-6.892-15.777-.639-1.282-1.443-2.49-2.154-3.732s-1.469-2.461-2.286-3.645c-1.594-2.385-3.332-4.672-5.138-6.887a75.459,75.459,0,0,0-5.878-6.229,41.377,41.377,0,0,0-6.685-5.306l-.529.714a65.073,65.073,0,0,1,9.436,13.345c1.321,2.373,2.558,4.782,3.644,7.262.6,1.206,1.136,2.446,1.637,3.7s1.076,2.466,1.5,3.753a67.38,67.38,0,0,1,2.3,7.755,60.07,60.07,0,0,0,2.546,7.624c.764,1.777,1.5,3.577,2.336,5.365-2.278.682-4.542,1.454-6.784,2.344a62.633,62.633,0,0,0-6.059,2.829,109.556,109.556,0,0,0-5.115-21.623,104.788,104.788,0,0,0-7.56-16.228,83.053,83.053,0,0,0-10.886-14.484l-3.079-3.278c-.95-.981-1.918-1.951-2.77-2.968a31.919,31.919,0,0,1-4.451-6.076c-1.089-2.023-1.268-3.819-.888-4.292a3.207,3.207,0,0,1,1.058-1.124,12.122,12.122,0,0,1,2.591-1.191,41.107,41.107,0,0,1,15.061-1.084,57.227,57.227,0,0,1,7.837,1.252,70.911,70.911,0,0,1,7.7,2.374,124.141,124.141,0,0,1,53.957,37.648A118.761,118.761,0,0,1,675.8,257.4a106.7,106.7,0,0,0-12.89,3.347c4.987-.106,9.942-.19,14.848-.1a116.268,116.268,0,0,1,6.353,12.265c4.8,10.314,8.122,21.351,10.885,32.643a128.832,128.832,0,0,0-6-34.533c-1.119-3.4-2.4-6.763-3.815-10.077.354.024.712.03,1.065.057a65.6,65.6,0,0,1,11.033,1.583,22.015,22.015,0,0,1,4.673,1.688,5.148,5.148,0,0,1,2.4,2.175,20.434,20.434,0,0,1,.8,2.149c.267.83.527,1.708.767,2.594.482,1.782.957,3.6,1.365,5.447.816,3.693,1.594,7.428,2.242,11.195,1.309,7.529,2.418,15.117,3.213,22.732a305.287,305.287,0,0,1,1.737,45.814c-.123,2.739-.31,5.475-.53,8.209a65.555,65.555,0,0,0-10.664.581,112.015,112.015,0,0,0-12.2,2.406l6.173-.409c2.043-.217,4.109-.054,6.145-.139a63.892,63.892,0,0,1,10.285.743,164.038,164.038,0,0,1-6.756,34.14c6.539-9.741,10.809-20.925,13.542-32.462a19.873,19.873,0,0,1,5.454,2.818l1.047.817.871.949.435.465.342.524a10.086,10.086,0,0,1,.661,1.039l.527,1.088.364,1.132c.055.383.18.766.2,1.135a5.054,5.054,0,0,1,.036.9l-.041.156.1.609A57.561,57.561,0,0,1,730.332,397.9Z" transform="translate(-310.947 -192.452)"/><path d="M619.475,373.242c-1.289,2.507-2.73,4.878-4.18,7.239-1.4,2.38-2.9,4.69-4.352,7.013-2.981,4.6-6.037,9.113-9.238,13.514-3.164,4.432-6.565,8.673-10.038,12.9-3.446,4.277-7.258,8.2-10.93,12.549a61.4,61.4,0,0,0,13.924-9.66,78.107,78.107,0,0,0,11.356-12.658,83.907,83.907,0,0,0,8.569-14.67,72.081,72.081,0,0,0,3.082-7.917A36.589,36.589,0,0,0,619.475,373.242Z" transform="translate(-310.947 -192.452)"/><path d="M457.863,522.135a91.217,91.217,0,0,1-7.778-8.942c-2.467-3.161-4.752-6.482-7.083-10.041a31.755,31.755,0,0,0,3.539,12.253,40.853,40.853,0,0,0,7.516,10.461,38.888,38.888,0,0,0,10.379,7.667,33.576,33.576,0,0,0,12.217,3.661c-3.461-2.55-6.885-4.637-9.97-7.2A82.327,82.327,0,0,1,457.863,522.135Z" transform="translate(-310.947 -192.452)"/><path d="M672.912,366.553c-3.356-.387-6.626-.913-10.395-1.137a13.4,13.4,0,0,0,4.594,3.187,18.917,18.917,0,0,0,5.354,1.475,16.12,16.12,0,0,0,10.791-2.118c-1.889-.417-3.607-.534-5.315-.791Z" transform="translate(-310.947 -192.452)"/><path d="M637.821,428.274c-3.221,5.306-6.482,10.607-10.124,15.694-1.728,2.615-3.675,5.068-5.5,7.655s-3.867,5-5.659,7.7a91.053,91.053,0,0,0,7.591-5.938,87.564,87.564,0,0,0,6.821-6.83c1.077-1.2,2.164-2.4,3.191-3.641l2.934-3.853c1.957-2.573,3.643-5.34,5.339-8.091a90.6,90.6,0,0,0,8.009-17.634,61.291,61.291,0,0,0,3.484-18.968c-2.177,6.038-4.669,11.78-7.332,17.43C643.85,417.417,640.994,422.93,637.821,428.274Z" transform="translate(-310.947 -192.452)"/><path d="M542.519,478.574c-1.282.548-2.617.951-3.931,1.491-1.322.516-2.677.935-4.024,1.565a32.389,32.389,0,0,0,4.372.145,33.025,33.025,0,0,0,4.338-.532,35.051,35.051,0,0,0,8.358-2.668,33.152,33.152,0,0,0,7.389-4.786,21.059,21.059,0,0,0,5.477-6.832,90.954,90.954,0,0,1-14.376,8.4C547.621,476.462,545.127,477.613,542.519,478.574Z" transform="translate(-310.947 -192.452)"/><path d="M536.816,513.842c-1.24.17-2.44.353-3.616.631-1.181.262-2.349.564-3.536.937a29.923,29.923,0,0,0-3.708,1.437,8.54,8.54,0,0,0,3.959,1.337,12.944,12.944,0,0,0,4.046-.241,11.364,11.364,0,0,0,6.864-4.227A19.67,19.67,0,0,0,536.816,513.842Z" transform="translate(-310.947 -192.452)"/><path d="M662.061,491.408c-2.036,2.7-4.013,5.448-5.888,8.307a72.394,72.394,0,0,0-5.166,9.078,43.659,43.659,0,0,0,8.372-6.4,65.6,65.6,0,0,0,6.932-7.77,59.044,59.044,0,0,0,5.568-8.853,34.333,34.333,0,0,0,3.388-10.043c-2.519,2.577-4.725,5.143-6.9,7.75S664.085,488.705,662.061,491.408Z" transform="translate(-310.947 -192.452)"/><path d="M680.865,301.964a60.705,60.705,0,0,0-6.022-13.828c.565,5.027,1.29,9.879,1.944,14.738.693,4.845,1.321,9.668,1.913,14.486.614,4.818,1.131,9.64,1.585,14.5.564,4.865.763,9.734,1.406,14.779a57.646,57.646,0,0,0,2.785-14.839,78.346,78.346,0,0,0-.486-15.088A85.708,85.708,0,0,0,680.865,301.964Z" transform="translate(-310.947 -192.452)"/><path d="M418.725,928.563l-1.449,10.159-7.44,1.5,4.336-30.4,11.314-2.272a18.657,18.657,0,0,1,5.713-.407,7.73,7.73,0,0,1,3.708,1.291,5,5,0,0,1,1.872,2.686,8.867,8.867,0,0,1,.187,3.772,13.754,13.754,0,0,1-1.364,4.327,13.467,13.467,0,0,1-2.82,3.729,17.5,17.5,0,0,1-4.318,2.924,23.937,23.937,0,0,1-5.865,1.918Zm.758-5.321,3.874-.778a7.917,7.917,0,0,0,4.37-2.154,7.064,7.064,0,0,0,1.8-3.929,4.59,4.59,0,0,0-.06-1.832,2.377,2.377,0,0,0-.791-1.27,3,3,0,0,0-1.56-.608,7.361,7.361,0,0,0-2.384.154l-3.874.777Z" transform="translate(-310.947 -192.452)"/><path d="M481.636,925.8l-5.766,1.157a2.291,2.291,0,0,1-1.535-.105,1.356,1.356,0,0,1-.714-.923l-1.137-4.917-12.195,2.449-2.649,5.677a3.823,3.823,0,0,1-1.007,1.228,3.6,3.6,0,0,1-1.63.782l-5.812,1.166,16.751-32.893,7.617-1.529Zm-18.945-7.483,8.761-1.759-1.761-7.734q-.175-.736-.407-1.732c-.154-.667-.3-1.389-.427-2.173q-.533,1.342-1.064,2.5t-.972,2.02Z" transform="translate(-310.947 -192.452)"/><path d="M510.906,890.433a1.827,1.827,0,0,1,.572.038,1.251,1.251,0,0,1,.459.221,3.477,3.477,0,0,1,.471.452l12.628,15.2c.023-.572.061-1.13.109-1.672s.109-1.062.179-1.548l2.294-16.087,6.559-1.316-4.336,30.4-3.872.778a3.417,3.417,0,0,1-1.418.041,1.867,1.867,0,0,1-1.014-.688L511,901.177c-.031.52-.068,1.029-.112,1.532s-.1.976-.159,1.419L508.4,920.423l-6.559,1.317,4.336-30.4,3.916-.786A7.25,7.25,0,0,1,510.906,890.433Z" transform="translate(-310.947 -192.452)"/><path d="M582.579,905.528l-5.766,1.157a2.292,2.292,0,0,1-1.535-.1,1.36,1.36,0,0,1-.714-.922l-1.137-4.919-12.193,2.45-2.65,5.678a3.84,3.84,0,0,1-1.006,1.227,3.6,3.6,0,0,1-1.632.782l-5.811,1.166,16.752-32.892,7.615-1.529Zm-18.944-7.484,8.76-1.76-1.761-7.732c-.115-.491-.252-1.067-.406-1.732s-.3-1.389-.428-2.173q-.532,1.342-1.063,2.5t-.971,2.02Z" transform="translate(-310.947 -192.452)"/><path d="M634.055,880.417a19.347,19.347,0,0,1-2.069,6.324,22.769,22.769,0,0,1-4.065,5.5,24.848,24.848,0,0,1-12.676,6.73l-12.459,2.5,4.336-30.4,12.459-2.5a17.732,17.732,0,0,1,6.647-.218,10.113,10.113,0,0,1,4.8,2.117,8.653,8.653,0,0,1,2.691,4.13A13.1,13.1,0,0,1,634.055,880.417Zm-7.618,1.529A11.44,11.44,0,0,0,626.4,878a5.532,5.532,0,0,0-1.332-2.722,4.834,4.834,0,0,0-2.552-1.372,9.167,9.167,0,0,0-3.711.086l-4.975,1-2.788,19.549,4.975-1a12.886,12.886,0,0,0,3.9-1.442,12.411,12.411,0,0,0,3.106-2.508,13.384,13.384,0,0,0,2.21-3.433A15.552,15.552,0,0,0,626.437,881.946Z" transform="translate(-310.947 -192.452)"/><path d="M678.04,856.829l-.774,5.425L664.1,864.9l-1.011,7.094,10.08-2.025-.744,5.216-10.08,2.024-1.034,7.241,13.163-2.644-.773,5.424-20.645,4.147,4.335-30.4Z" transform="translate(-310.947 -192.452)"/><path d="M704.583,870.1l-1.6,11.246-7.44,1.494,4.336-30.4,10.434-2.095a21.76,21.76,0,0,1,5.835-.512,7.951,7.951,0,0,1,3.737,1.084,4.345,4.345,0,0,1,1.847,2.406,7.8,7.8,0,0,1,.194,3.445,11.238,11.238,0,0,1-.817,2.882,12.781,12.781,0,0,1-1.59,2.68,15.632,15.632,0,0,1-2.31,2.4,16.815,16.815,0,0,1-2.968,1.994,4.524,4.524,0,0,1,1.274.6,3.168,3.168,0,0,1,.952,1.046l5.314,9.207-6.735,1.352q-1.871.378-2.5-.8l-4.069-7.754a1.293,1.293,0,0,0-.706-.67,2.56,2.56,0,0,0-1.3.018Zm.694-4.861,2.994-.6a10.1,10.1,0,0,0,2.637-.884,7.416,7.416,0,0,0,1.9-1.365,6.051,6.051,0,0,0,1.205-1.712,6.875,6.875,0,0,0,.575-1.928,2.725,2.725,0,0,0-.928-2.853q-1.216-.849-4.1-.271l-2.994.6Z" transform="translate(-310.947 -192.452)"/><path d="M750.569,871.794l-7.484,1.5,4.335-30.4,7.485-1.5Zm11.051-38.66-7.13,5.77a5.214,5.214,0,0,1-1.148.767,5.766,5.766,0,0,1-1.264.386l-5.414,1.087,4.571-4.911a5.924,5.924,0,0,1,.636-.623,3.984,3.984,0,0,1,.628-.441,3.422,3.422,0,0,1,.706-.3,8.908,8.908,0,0,1,.887-.22Z" transform="translate(-310.947 -192.452)"/><path d="M803.964,861.071l-5.766,1.158a2.3,2.3,0,0,1-1.535-.107,1.356,1.356,0,0,1-.714-.921l-1.137-4.918-12.194,2.448-2.649,5.679a3.847,3.847,0,0,1-1.007,1.227,3.59,3.59,0,0,1-1.631.783l-5.812,1.166,16.752-32.893,7.616-1.529Zm-18.945-7.484,8.761-1.759-1.761-7.733c-.116-.491-.252-1.067-.406-1.733s-.3-1.389-.428-2.173q-.532,1.342-1.063,2.5t-.971,2.02Z" transform="translate(-310.947 -192.452)"/><polygon points="0.427 710.8 0.427 530 66.202 513.151 66.202 532.268 81.106 510.559 106.055 504.079 106.055 683.907 77.866 691.683 77.866 535.508 66.202 550.737 66.202 659.93 40.604 669.956 40.604 529.028 25.376 533.564 25.376 703.672 0.427 710.8"/><polygon points="122.58 500.515 150.769 493.711 150.769 671.288 123.228 679.047 122.58 500.515"/><polygon points="122.58 459.311 150.769 454.469 150.769 480.966 123.228 488.724 122.58 459.311"/><polygon points="332.524 457.349 360.713 450.545 360.713 628.122 333.172 635.881 332.524 457.349"/><polygon points="332.524 416.145 360.713 411.303 360.713 437.8 333.172 445.558 332.524 416.145"/><path d="M535.484,673.31l-58.323,11.233L476.3,864.694l46.226-11.232,23.329-51.41.864-103.685ZM517.123,842.661l-16.2,3.889,1.728-156.391,16.363-3.4Z" transform="translate(-310.947 -192.452)"/><polygon points="249.594 475.242 275.191 470.382 290.743 498.571 290.743 467.789 317.961 460.661 317.961 635.305 290.419 644.701 290.419 518.318 275.515 494.359 275.515 645.349 248.946 654.098 249.594 475.242"/><polygon points="378.551 448.025 435.902 436.36 447.242 459.041 420.997 468.761 420.997 447.052 403.824 450.941 403.824 608.033 420.673 603.569 420.673 522.548 411.277 525.14 411.277 514.123 447.242 505.051 447.242 564.346 424.237 616.188 379.199 628.176 378.551 448.025"/><polygon points="458.907 430.852 486.772 424.696 486.772 507.301 503.297 479.13 503.297 421.779 529.542 415.299 529.542 590.267 503.945 600.959 503.621 499.219 485.8 528.704 485.8 600.959 458.259 611.328 458.907 430.852"/><polygon points="536.994 413.679 595.965 401.691 595.965 414.003 578.144 417.567 578.144 584.434 551.575 594.479 551.575 422.346 537.318 425.587 536.994 413.679"/><line x1="581.998" y1="633.043" x2="510.5" y2="650.258"/><polygon points="581.998 633.043 511.231 653.294 509.769 647.223 581.998 633.043"/><line x1="71.498" y1="742.324" y2="759.54"/><polygon points="72.229 745.36 0 759.54 70.767 739.288 72.229 745.36"/></svg>